<svg version="1.1" id="Layer_1" xmlns="http://www.w3.org/2000/svg" xmlns:xlink="http://www.w3.org/1999/xlink" x="0px" y="0px"
	 width="100%" viewBox="0 0 1599 839" enable-background="new 0 0 1599 839" xml:space="preserve">
<path fill="#010001" opacity="1.000000" stroke="none" 
	d="
M1093.000000,840.000000 
	C728.666687,840.000000 364.833344,840.000000 1.000000,840.000000 
	C1.000000,560.333313 1.000000,280.666656 1.000000,1.000000 
	C534.000000,1.000000 1067.000000,1.000000 1600.000000,1.000000 
	C1600.000000,280.666656 1600.000000,560.333313 1600.000000,840.000000 
	C1431.166626,840.000000 1262.333374,840.000000 1093.000000,840.000000 
M851.272034,504.355530 
	C851.175598,503.902679 851.079163,503.449829 851.288391,502.161407 
	C851.195923,500.107178 851.103455,498.052917 851.339233,495.172363 
	C851.231506,493.116180 851.123779,491.059967 851.275391,488.396881 
	C849.167603,483.289825 847.059814,478.182770 844.667786,472.620667 
	C844.549683,472.486450 844.431519,472.352203 844.463501,471.570282 
	C843.294189,470.069336 842.124878,468.568359 840.788086,466.590759 
	C840.686340,466.456604 840.584534,466.322449 840.569397,465.549164 
	C839.692017,464.405151 838.814636,463.261139 837.756531,461.527740 
	C837.366577,461.055450 836.976624,460.583160 836.583435,459.524384 
	C836.107788,458.935120 835.632202,458.345886 834.878845,457.161499 
	C834.321533,456.495636 833.764282,455.829742 833.204773,454.510162 
	C830.850281,451.051971 828.495728,447.593781 825.555969,443.276001 
	C823.708862,450.558411 822.041748,456.588196 820.742249,462.696167 
	C820.471313,463.969879 821.558960,465.532684 822.223633,467.608246 
	C822.722534,468.354462 823.221497,469.100708 823.623657,470.371826 
	C824.124268,470.844696 824.624878,471.317566 825.060852,471.888397 
	C825.060852,471.888397 825.171387,471.927612 825.113892,472.568634 
	C825.763306,473.347839 826.412781,474.127075 827.268250,475.381775 
	C827.392273,475.502045 827.516235,475.622345 827.568909,476.315338 
	C828.069519,476.840851 828.570068,477.366364 829.276917,478.506805 
	C829.625244,479.292572 829.973511,480.078369 830.655396,481.494385 
	C832.272522,485.632355 833.889648,489.770294 835.427551,494.768677 
	C835.462769,496.207336 835.498047,497.645996 835.061401,499.652649 
	C834.587341,502.171295 834.113281,504.689911 833.329224,507.756287 
	C833.209961,508.157532 833.090637,508.558777 832.412048,509.261444 
	C832.087585,510.230682 831.763123,511.199921 831.164307,512.548462 
	C831.164307,512.548462 830.986816,512.981628 830.383667,513.193604 
	C829.732422,514.521912 829.081177,515.850220 827.972046,517.524170 
	C827.606628,517.960876 827.241211,518.397522 826.262695,518.950378 
	C825.835083,519.629517 825.407471,520.308655 824.450134,521.313538 
	C823.685852,522.001465 822.921570,522.689392 821.456909,523.453430 
	C816.077820,525.287903 810.779602,527.443665 805.286804,528.826782 
	C802.363098,529.562927 799.102722,528.961853 795.479675,528.795044 
	C795.126099,528.724548 794.772461,528.654114 793.975159,528.070129 
	C789.930786,526.169495 785.886414,524.268860 781.438538,521.921631 
	C781.118286,521.682251 780.797974,521.442932 780.415161,520.657288 
	C779.867065,520.256592 779.319031,519.855896 778.722900,519.277161 
	C778.722900,519.277161 778.549927,519.213257 778.532837,518.598877 
	C777.664978,517.769897 776.797058,516.940857 775.709106,515.613281 
	C775.584412,515.481201 775.459656,515.349121 775.410461,514.646729 
	C774.929260,514.114746 774.447998,513.582764 773.727234,512.595154 
	C773.608948,512.470825 773.490662,512.346558 773.456970,511.572296 
	C772.309509,510.037140 771.162048,508.501953 769.760132,506.453156 
	C769.422119,505.994385 769.084045,505.535614 768.634277,504.403442 
	C762.589783,496.163361 753.078003,499.666565 745.570801,496.380676 
	C745.217346,496.907990 744.863892,497.435303 744.510437,497.962616 
	C748.328308,503.662598 752.146179,509.362579 756.158447,515.526306 
	C756.286560,515.634338 756.414734,515.742371 756.525574,516.513672 
	C758.058655,518.608643 759.591736,520.703552 761.287415,523.388794 
	C761.668640,523.860352 762.049927,524.331909 762.359497,525.409058 
	C762.915039,525.925842 763.470642,526.442566 764.312073,527.549194 
	C765.908508,529.348022 767.505005,531.146851 769.180725,533.566467 
	C770.198547,534.157959 771.216309,534.749451 772.677124,535.719849 
	C772.864563,535.771118 773.051941,535.822388 773.296204,536.394531 
	C773.589294,536.571167 773.882385,536.747803 774.479431,537.488281 
	C780.318665,539.986389 786.157837,542.484558 792.742615,545.165710 
	C793.496216,545.103027 794.249878,545.040344 795.314148,545.234741 
	C795.314148,545.234741 795.717163,545.246582 795.969971,545.718994 
	C796.978149,545.790100 797.986389,545.861206 799.871887,546.100098 
	C802.249756,546.045044 804.627625,545.990051 807.460510,546.193909 
	C808.404175,545.886414 809.347778,545.578979 811.042542,545.267761 
	C812.033569,545.137939 813.024658,545.008057 814.556274,545.197571 
	C819.735901,542.833740 824.915527,540.469971 830.714050,537.908630 
	C831.778076,536.920471 832.842041,535.932251 834.515442,534.692139 
	C835.603699,533.606689 836.692017,532.521301 838.400879,531.419250 
	C839.776794,529.576355 841.152710,527.733459 842.880615,525.545654 
	C842.880615,525.545654 843.049683,525.082825 843.618042,524.791748 
	C844.282471,523.472900 844.946960,522.153992 845.968262,520.381226 
	C846.049316,520.006470 846.130371,519.631775 846.810547,518.956299 
	C847.873169,515.637573 848.935852,512.318848 850.192993,508.462524 
	C850.227478,508.084412 850.262024,507.706329 850.734253,507.153503 
	C850.815063,506.436279 850.895874,505.719025 851.272034,504.355530 
M784.562988,265.476868 
	C782.115784,270.674072 779.668579,275.871246 776.798767,281.587921 
	C768.882507,297.423950 760.966248,313.259979 752.484314,329.395386 
	C745.151611,343.567993 737.765625,357.713470 730.514893,371.927887 
	C727.965332,376.925903 725.747375,382.093079 723.073486,387.648712 
	C722.951294,387.998413 722.829163,388.348083 722.106079,388.991302 
	C710.836670,411.424530 699.589661,433.869080 688.274719,456.279266 
	C686.494568,459.804932 688.797241,459.961670 691.133362,459.994110 
	C703.121948,460.160583 715.113037,460.379761 727.099243,460.239227 
	C728.911011,460.218018 731.571350,458.859924 732.365784,457.346710 
	C739.224182,444.283722 745.744751,431.043335 752.712830,417.402222 
	C752.787903,417.227325 752.862976,417.052399 753.515198,416.593079 
	C758.541504,406.359985 763.567749,396.126923 768.958618,385.319244 
	C780.001404,363.260315 791.044128,341.201355 802.442993,318.431061 
	C803.810425,320.490356 804.949463,321.891998 805.753845,323.464752 
	C815.064392,341.670135 824.408264,359.859589 833.522644,378.163147 
	C835.231140,381.594177 837.211304,383.183746 841.156006,383.084900 
	C851.475281,382.826385 861.804321,382.979340 872.128418,382.869354 
	C874.332947,382.845856 876.532959,382.403320 879.357788,382.083282 
	C878.434143,379.573120 877.966492,377.815277 877.171692,376.220520 
	C871.756104,365.354431 866.308228,354.504028 860.801331,343.683868 
	C851.524658,325.456512 842.196533,307.255371 832.783264,288.301086 
	C827.499817,277.911194 822.216370,267.521301 816.728088,256.595917 
	C816.614014,256.442657 816.499878,256.289368 816.467834,255.429779 
	C812.237793,247.246292 809.011536,238.440598 801.937073,230.537262 
	C798.631592,237.497131 795.888794,243.272263 792.881104,249.340881 
	C792.881104,249.340881 792.824036,249.732071 792.282471,250.108551 
	C791.410706,252.119385 790.539001,254.130219 789.290833,256.621552 
	C789.128845,256.990448 788.966858,257.359375 788.291321,258.154083 
	C787.199280,260.440521 786.107239,262.726959 784.562988,265.476868 
M906.661011,434.488892 
	C906.104187,433.664886 905.547424,432.840851 904.898010,431.317444 
	C904.047119,429.928589 903.196167,428.539703 902.328430,426.511078 
	C900.881348,424.985107 899.434204,423.459167 897.151306,421.641388 
	C895.109863,421.716797 893.068420,421.792206 890.142578,421.629272 
	C887.105286,421.695496 884.067993,421.761688 880.482666,421.446106 
	C879.596619,421.470032 878.710632,421.493958 877.141785,421.141785 
	C870.568420,421.141785 863.995056,421.141785 856.941406,421.141785 
	C857.439026,422.908539 857.621277,424.222717 858.161011,425.368439 
	C863.116638,435.887909 867.973389,446.461029 873.294373,456.794250 
	C874.168152,458.491119 877.142700,460.008575 879.180847,460.053772 
	C890.485901,460.304688 901.802307,460.122345 913.113037,459.962677 
	C914.983521,459.936310 916.845276,459.289154 919.498596,458.776825 
	C915.075378,450.668640 911.056641,443.301819 906.911804,435.469360 
	C906.911804,435.469360 906.597107,435.103760 906.661011,434.488892 
M765.124756,613.500793 
	C765.116882,604.841370 764.967163,596.178711 765.159729,587.523743 
	C765.258972,583.063721 762.323181,583.988708 759.770264,583.878479 
	C757.064087,583.761597 754.784302,583.817017 754.982117,587.666199 
	C755.246704,592.816528 754.926147,597.998291 755.224365,603.145264 
	C755.447083,606.988342 753.836182,608.028809 750.272766,607.922180 
	C743.284485,607.713013 736.285828,607.747437 729.293091,607.826233 
	C723.932495,607.886597 715.978516,615.732666 715.880371,621.047607 
	C715.769775,627.040588 715.968994,633.040222 715.812439,639.031189 
	C715.681885,644.029602 719.386475,642.180847 721.801025,642.605469 
	C724.596863,643.097168 725.711243,641.880432 725.652222,639.010803 
	C725.532349,633.185730 725.710938,627.355164 725.648987,621.528137 
	C725.620789,618.871277 726.500916,617.566040 729.395142,617.620300 
	C736.719727,617.757568 744.048584,617.752380 751.374573,617.681213 
	C754.145874,617.654358 755.252258,618.771973 755.194031,621.545410 
	C755.071655,627.371521 755.317078,633.209778 755.056946,639.027161 
	C754.855591,643.530640 757.898438,642.525513 760.411682,642.714966 
	C763.161316,642.922241 765.246521,642.826538 765.143677,638.978760 
	C764.925720,630.825134 765.106506,622.660767 765.124756,613.500793 
M689.420593,595.515259 
	C695.393188,598.939453 699.403870,603.788635 700.060669,610.839050 
	C701.187622,622.937317 692.072449,633.255554 679.618774,632.517212 
	C671.091980,632.011719 666.172791,635.800720 661.379822,642.540894 
	C669.652344,642.540894 677.374023,643.427307 684.806274,642.338257 
	C696.716553,640.593140 705.315491,633.524780 709.036804,621.913391 
	C712.560852,610.917603 710.000977,600.951416 701.962830,592.403320 
	C690.442383,580.151794 675.831970,583.921997 661.305115,583.674194 
	C666.266113,590.228577 671.019958,595.049072 679.524292,593.578003 
	C682.427368,593.075928 685.667419,594.522339 689.420593,595.515259 
M877.559692,632.610779 
	C875.609680,629.005981 873.659607,625.401245 871.743286,621.858826 
	C872.516357,621.211975 872.864746,620.850586 873.275757,620.586731 
	C882.201416,614.856201 885.917297,606.010193 883.283508,596.731262 
	C880.681763,587.565186 872.844727,582.153381 862.044434,582.085815 
	C858.550171,582.063904 855.055603,582.085388 851.561218,582.085815 
	C846.678467,582.086426 841.795715,582.085999 836.676392,582.085999 
	C839.096436,589.422485 842.362244,593.988892 850.446899,592.579590 
	C854.319397,591.904541 858.413513,592.461243 862.406250,592.523560 
	C869.092896,592.627869 873.408203,596.670471 873.409546,602.768188 
	C873.410767,608.258789 868.734192,612.496155 862.473389,612.626160 
	C859.937744,612.678772 857.400024,612.634827 853.815369,612.634827 
	C859.175659,621.848877 863.810791,629.871216 868.501038,637.861084 
	C872.307434,644.345337 875.558411,645.433777 883.333313,642.704163 
	C881.522705,639.510620 879.742432,636.370544 877.559692,632.610779 
M958.572388,611.656494 
	C953.604492,621.527954 948.636658,631.399353 943.550171,641.506409 
	C955.100525,642.961975 955.096252,642.846680 959.574646,633.740967 
	C964.453125,623.821594 969.576355,614.022461 975.132141,603.111938 
	C977.343811,607.342285 979.105957,610.631287 980.793762,613.958008 
	C984.623108,621.505432 987.153198,622.540527 996.001160,619.794800 
	C989.188904,606.387024 982.411438,593.047668 975.165649,578.786499 
	C969.373291,590.283508 964.153503,600.644165 958.572388,611.656494 
M776.132751,639.159607 
	C776.049377,639.939148 775.596680,641.103760 775.942688,641.435547 
	C778.131042,643.534424 786.828125,641.907898 788.252075,639.166626 
	C790.931763,634.007935 793.498718,628.790710 796.138794,623.611206 
	C799.353088,617.305176 802.594482,611.012939 806.365356,603.659546 
	C808.603577,607.698181 810.354553,610.632202 811.891418,613.674316 
	C815.986816,621.780640 817.165161,622.352478 827.156921,620.141663 
	C820.353699,606.700989 813.630676,593.418762 806.453125,579.238647 
	C796.098755,599.752014 786.306702,619.151306 776.132751,639.159607 
M920.403564,619.596252 
	C918.272827,616.460693 915.892151,613.463623 914.062927,610.161072 
	C910.153198,603.102112 908.323730,602.251587 899.374084,604.713440 
	C906.060486,617.827271 912.685242,630.820190 919.733215,644.643127 
	C930.250732,623.823792 940.230225,604.069519 950.274902,584.186096 
	C940.652832,581.914001 939.194153,582.567078 935.270081,590.419250 
	C930.518433,599.927246 925.753662,609.428650 920.403564,619.596252 
M627.123596,585.534790 
	C626.635864,584.885010 626.148193,584.235229 625.157654,582.915405 
	C615.246643,602.578430 605.582581,621.751587 595.811218,641.137512 
	C606.206116,642.795410 606.719727,642.472473 610.730530,634.222168 
	C614.651428,626.156738 618.709229,618.157471 622.759705,610.155823 
	C623.438599,608.814636 624.385742,607.609253 625.629333,605.693542 
	C627.730530,609.609619 629.458679,612.615723 630.986023,615.720581 
	C634.381958,622.624146 636.198853,623.411194 645.106567,621.168152 
	C639.156738,609.425903 633.260010,597.788330 627.123596,585.534790 
M992.005676,636.062317 
	C995.415100,642.769531 997.902344,643.695129 1006.125183,641.316650 
	C1004.059448,631.668091 1000.445129,629.476929 990.160461,631.913025 
	C990.682312,633.126709 991.183228,634.291748 992.005676,636.062317 
M837.130737,639.841003 
	C833.011108,630.781555 829.583862,629.122742 821.346497,632.343811 
	C822.454895,634.584229 823.529602,636.826538 824.665466,639.037415 
	C826.720703,643.037720 833.713867,643.849792 837.130737,639.841003 
M891.158875,588.791016 
	C894.152161,594.565430 895.799622,595.090515 904.696045,593.105652 
	C902.336853,583.476501 898.520081,581.226562 889.096069,584.143555 
	C889.703186,585.493591 890.302734,586.826721 891.158875,588.791016 
M643.704041,640.913757 
	C647.305054,641.331238 650.906006,641.748718 654.806335,642.200867 
	C652.594177,632.081055 648.092957,629.472046 639.709900,632.770752 
	C640.895386,635.303528 642.077698,637.829712 643.704041,640.913757 
z"/>
<path fill="#DCD7D2" opacity="1.000000" stroke="none" 
	d="
M722.707031,388.697754 
	C722.829163,388.348083 722.951294,387.998413 723.547729,387.323730 
	C728.322693,378.985077 732.623474,370.971405 737.212646,362.923706 
	C737.591614,362.240204 737.682129,361.590729 737.895630,360.600525 
	C740.374023,355.850647 742.729492,351.441467 745.408813,346.939209 
	C746.065613,346.089935 746.398621,345.333710 746.788208,344.225403 
	C748.942261,339.616089 751.039795,335.358856 753.454956,330.975494 
	C754.171753,330.342072 754.667664,329.884186 754.955627,329.320160 
	C760.283691,318.885956 765.686218,308.487946 770.856689,297.975800 
	C773.759644,292.073547 776.270142,285.978241 779.064209,279.630371 
	C781.192566,275.245697 783.214172,271.200562 785.536194,267.018250 
	C786.191406,265.898621 786.546265,264.916168 787.009033,263.617188 
	C787.844910,261.918945 788.572876,260.537323 789.644165,259.094177 
	C791.278442,258.078247 792.712402,257.266968 793.836060,256.144989 
	C799.107666,250.881668 803.093689,250.617004 809.028992,254.444992 
	C814.444092,257.937439 816.863892,263.030304 818.058105,268.949890 
	C818.663757,271.952148 820.105591,273.357361 823.230835,272.716675 
	C823.244507,272.760468 823.272339,272.847900 823.205750,273.238464 
	C824.267822,277.251587 823.989990,281.706726 828.931091,283.457947 
	C829.735168,285.159546 830.389832,286.564117 830.912231,288.278503 
	C832.624207,293.757782 834.248779,299.020508 836.389343,304.064301 
	C837.840393,307.483398 840.080872,310.560242 841.848572,313.854340 
	C843.372620,316.694366 844.697510,319.640472 846.163025,322.512848 
	C849.817566,329.675568 852.135681,337.593292 857.989258,343.521332 
	C858.074524,343.607697 858.009094,343.842957 857.931458,344.054749 
	C857.848938,344.100800 857.811890,344.288574 857.811890,344.288574 
	C857.811890,344.288574 857.991333,343.985626 858.275146,344.179504 
	C860.092529,347.597015 862.081543,350.690491 863.048645,354.075928 
	C864.365051,358.684723 864.244202,363.770447 865.950500,368.183533 
	C867.794006,372.951660 865.406555,375.039886 862.210754,377.005371 
	C855.948792,380.856659 849.370544,378.992523 842.938477,377.533752 
	C836.717712,376.122864 831.726196,370.010254 831.341553,363.548645 
	C825.909363,364.888977 827.333801,359.820496 826.054932,357.496796 
	C820.781677,347.915710 816.073120,338.024719 810.838562,328.421173 
	C808.454468,324.047302 805.329956,320.076965 802.496582,315.856934 
	C801.293396,316.732391 800.740173,316.931030 800.532043,317.316132 
	C795.267090,327.058228 790.056580,336.829773 784.794617,346.573486 
	C782.596924,350.643036 780.125244,354.573456 778.091675,358.720886 
	C774.342834,366.366638 770.953369,374.189178 767.179260,381.821899 
	C762.504211,391.276520 757.465454,400.551941 752.829041,410.024811 
	C750.287537,415.217499 748.250854,420.657257 745.702881,426.177795 
	C744.666992,428.270172 743.914612,430.170349 742.778442,432.059875 
	C736.582947,433.689301 737.190186,439.699158 735.379639,443.587036 
	C729.948975,455.248596 716.694885,460.197571 706.099182,453.475555 
	C701.520813,450.570984 699.356445,446.949432 701.201782,441.394867 
	C701.487915,440.533661 700.108643,439.119202 699.610352,437.596863 
	C705.229370,426.033325 710.807556,414.867249 716.213013,403.618134 
	C718.560669,398.732605 720.553162,393.676422 722.707031,388.697754 
z"/>
<path fill="#CFC9C2" opacity="1.000000" stroke="none" 
	d="
M795.717163,545.246582 
	C795.717163,545.246582 795.314148,545.234741 795.112000,544.797180 
	C793.941406,544.234924 792.973022,544.110229 791.626099,543.943665 
	C786.540710,541.856018 781.833862,539.810242 777.073120,537.449829 
	C775.759216,536.714661 774.499329,536.294189 773.239380,535.873657 
	C773.051941,535.822388 772.864563,535.771118 772.385254,535.231812 
	C771.096069,534.144470 770.098755,533.545105 769.101440,532.945679 
	C767.505005,531.146851 765.908508,529.348022 764.197510,526.950623 
	C763.532349,525.835876 762.981750,525.319641 762.431152,524.803467 
	C762.049927,524.331909 761.668640,523.860352 761.243347,522.732910 
	C760.224854,520.109863 759.250427,518.142700 758.610107,515.983704 
	C762.019287,511.713043 766.017395,509.929962 771.333008,511.058502 
	C772.154236,511.554840 772.763306,511.888580 773.372437,512.222290 
	C773.490662,512.346558 773.608948,512.470825 773.804565,513.111938 
	C774.366211,514.158203 774.850586,514.687622 775.334961,515.217041 
	C775.459656,515.349121 775.584412,515.481201 775.800903,516.180908 
	C776.778503,517.570129 777.664246,518.391663 778.549927,519.213257 
	C778.549927,519.213257 778.722900,519.277161 778.745850,519.646851 
	C779.338501,520.412231 779.908081,520.807861 780.477722,521.203552 
	C780.797974,521.442932 781.118286,521.682251 781.714050,522.470581 
	C786.132690,524.874268 790.275757,526.729004 794.418884,528.583679 
	C794.772461,528.654114 795.126099,528.724548 796.068481,529.124023 
	C806.006165,530.990356 814.875366,530.514526 822.157349,523.377319 
	C822.921570,522.689392 823.685852,522.001465 825.044434,521.113892 
	C826.051147,520.220825 826.463440,519.527527 826.875793,518.834167 
	C827.241211,518.397522 827.606628,517.960876 828.520508,517.279053 
	C829.708313,515.683228 830.347534,514.332397 830.986816,512.981628 
	C830.986816,512.981628 831.164307,512.548462 831.602051,512.236328 
	C832.350281,510.936157 832.660828,509.948090 832.971375,508.960022 
	C833.090637,508.558777 833.209961,508.157532 833.758057,507.301086 
	C834.635681,504.258789 835.084534,501.671722 835.533325,499.084656 
	C835.498047,497.645996 835.462769,496.207336 835.662476,494.056396 
	C834.601929,488.932587 835.237488,483.658295 830.321777,480.864166 
	C829.973511,480.078369 829.625244,479.292572 829.206787,477.852692 
	C828.761719,476.626740 828.386841,476.054932 828.037781,475.156067 
	C829.372681,473.213196 830.681702,471.597382 831.991394,469.735779 
	C831.992004,469.489960 832.005737,468.998505 832.334717,469.070679 
	C835.443665,469.090759 838.223633,469.038666 841.264771,469.130768 
	C842.455017,470.255951 843.384216,471.236938 844.313354,472.217896 
	C844.431519,472.352203 844.549683,472.486450 844.796631,473.209595 
	C845.964478,476.197113 847.003418,478.595703 847.846741,481.165253 
	C848.026001,481.924286 848.400940,482.512360 848.874084,483.448151 
	C849.223999,485.203918 849.475708,486.611969 849.391357,488.156097 
	C848.152649,491.255493 845.649170,494.625061 851.010986,495.998688 
	C851.103455,498.052917 851.195923,500.107178 850.860107,502.596680 
	C850.258850,503.686646 850.085815,504.341339 849.921265,505.394714 
	C850.052002,506.304993 850.174255,506.816620 850.296570,507.328217 
	C850.262024,507.706329 850.227478,508.084412 849.834839,508.873840 
	C849.218567,509.815826 848.960510,510.346497 848.464417,510.962463 
	C848.091614,511.689392 847.956909,512.330994 847.769409,513.330872 
	C847.214844,515.545105 846.713196,517.401062 846.211548,519.257019 
	C846.130371,519.631775 846.049316,520.006470 845.497070,520.638062 
	C844.383423,521.622620 843.741028,522.350342 842.715698,523.069092 
	C841.377502,523.387207 840.422119,523.714294 839.466797,524.041443 
	C839.864258,524.769287 840.261719,525.497131 840.441772,526.485107 
	C839.409668,528.308777 838.594971,529.872314 837.780273,531.435852 
	C836.692017,532.521301 835.603699,533.606689 833.893921,534.785156 
	C832.510132,535.248169 831.747803,535.618103 830.605957,536.007080 
	C828.466797,537.327209 826.707214,538.628418 824.682861,540.151978 
	C820.950562,541.875671 817.483093,543.376953 814.015686,544.878174 
	C813.024658,545.008057 812.033569,545.137939 810.364563,545.090332 
	C808.803284,544.619141 807.919983,544.325378 806.614014,544.004761 
	C803.785828,544.325317 801.380249,544.672852 798.561646,544.993835 
	C797.338074,545.060425 796.527649,545.153503 795.717163,545.246582 
M835.491577,529.549316 
	C835.491577,529.549316 835.457397,529.480591 835.491577,529.549316 
z"/>
<path fill="#B6B2AB" opacity="1.000000" stroke="none" 
	d="
M745.986450,425.985565 
	C748.250854,420.657257 750.287537,415.217499 752.829041,410.024811 
	C757.465454,400.551941 762.504211,391.276520 767.179260,381.821899 
	C770.953369,374.189178 774.342834,366.366638 778.091675,358.720886 
	C780.125244,354.573456 782.596924,350.643036 784.794617,346.573486 
	C790.056580,336.829773 795.267090,327.058228 800.532043,317.316132 
	C800.740173,316.931030 801.293396,316.732391 802.496582,315.856934 
	C805.329956,320.076965 808.454468,324.047302 810.838562,328.421173 
	C816.073120,338.024719 820.781677,347.915710 826.054932,357.496796 
	C827.333801,359.820496 825.909363,364.888977 831.341553,363.548645 
	C831.726196,370.010254 836.717712,376.122864 842.938477,377.533752 
	C849.370544,378.992523 855.948792,380.856659 862.210754,377.005371 
	C865.406555,375.039886 867.794006,372.951660 865.950500,368.183533 
	C864.244202,363.770447 864.365051,358.684723 863.048645,354.075928 
	C862.081543,350.690491 860.092529,347.597015 858.279480,344.186584 
	C858.000000,343.999725 858.013977,344.008728 858.013977,344.008728 
	C858.009094,343.842957 858.074524,343.607697 857.989258,343.521332 
	C852.135681,337.593292 849.817566,329.675568 846.163025,322.512848 
	C844.697510,319.640472 843.372620,316.694366 841.848572,313.854340 
	C840.080872,310.560242 837.840393,307.483398 836.389343,304.064301 
	C834.248779,299.020508 832.624207,293.757782 831.144043,288.413513 
	C831.968872,288.506866 832.429504,288.775024 832.890137,289.043213 
	C842.196533,307.255371 851.524658,325.456512 860.801331,343.683868 
	C866.308228,354.504028 871.756104,365.354431 877.171692,376.220520 
	C877.966492,377.815277 878.434143,379.573120 879.357788,382.083282 
	C876.532959,382.403320 874.332947,382.845856 872.128418,382.869354 
	C861.804321,382.979340 851.475281,382.826385 841.156006,383.084900 
	C837.211304,383.183746 835.231140,381.594177 833.522644,378.163147 
	C824.408264,359.859589 815.064392,341.670135 805.753845,323.464752 
	C804.949463,321.891998 803.810425,320.490356 802.442993,318.431061 
	C791.044128,341.201355 780.001404,363.260315 768.466248,385.716980 
	C766.164490,389.461609 764.220581,392.743744 762.574158,396.168945 
	C759.276001,403.030396 756.140564,409.970093 752.937988,416.877502 
	C752.862976,417.052399 752.787903,417.227325 752.246948,417.747620 
	C749.849548,420.723877 747.918030,423.354736 745.986450,425.985565 
z"/>
<path fill="#CCCCBE" opacity="1.000000" stroke="none" 
	d="
M765.124268,614.000854 
	C765.106506,622.660767 764.925720,630.825134 765.143677,638.978760 
	C765.246521,642.826538 763.161316,642.922241 760.411682,642.714966 
	C757.898438,642.525513 754.855591,643.530640 755.056946,639.027161 
	C755.317078,633.209778 755.071655,627.371521 755.194031,621.545410 
	C755.252258,618.771973 754.145874,617.654358 751.374573,617.681213 
	C744.048584,617.752380 736.719727,617.757568 729.395142,617.620300 
	C726.500916,617.566040 725.620789,618.871277 725.648987,621.528137 
	C725.710938,627.355164 725.532349,633.185730 725.652222,639.010803 
	C725.711243,641.880432 724.596863,643.097168 721.801025,642.605469 
	C719.386475,642.180847 715.681885,644.029602 715.812439,639.031189 
	C715.968994,633.040222 715.769775,627.040588 715.880371,621.047607 
	C715.978516,615.732666 723.932495,607.886597 729.293091,607.826233 
	C736.285828,607.747437 743.284485,607.713013 750.272766,607.922180 
	C753.836182,608.028809 755.447083,606.988342 755.224365,603.145264 
	C754.926147,597.998291 755.246704,592.816528 754.982117,587.666199 
	C754.784302,583.817017 757.064087,583.761597 759.770264,583.878479 
	C762.323181,583.988708 765.258972,583.063721 765.159729,587.523743 
	C764.967163,596.178711 765.116882,604.841370 765.124268,614.000854 
z"/>
<path fill="#CFC9C2" opacity="1.000000" stroke="none" 
	d="
M689.087036,595.296875 
	C685.667419,594.522339 682.427368,593.075928 679.524292,593.578003 
	C671.019958,595.049072 666.266113,590.228577 661.305115,583.674194 
	C675.831970,583.921997 690.442383,580.151794 701.962830,592.403320 
	C710.000977,600.951416 712.560852,610.917603 709.036804,621.913391 
	C705.315491,633.524780 696.716553,640.593140 684.806274,642.338257 
	C677.374023,643.427307 669.652344,642.540894 661.379822,642.540894 
	C666.172791,635.800720 671.091980,632.011719 679.618774,632.517212 
	C692.072449,633.255554 701.187622,622.937317 700.060669,610.839050 
	C699.403870,603.788635 695.393188,598.939453 689.087036,595.296875 
z"/>
<path fill="#CCCCBE" opacity="1.000000" stroke="none" 
	d="
M877.760864,632.920654 
	C879.742432,636.370544 881.522705,639.510620 883.333313,642.704163 
	C875.558411,645.433777 872.307434,644.345337 868.501038,637.861084 
	C863.810791,629.871216 859.175659,621.848877 853.815369,612.634827 
	C857.400024,612.634827 859.937744,612.678772 862.473389,612.626160 
	C868.734192,612.496155 873.410767,608.258789 873.409546,602.768188 
	C873.408203,596.670471 869.092896,592.627869 862.406250,592.523560 
	C858.413513,592.461243 854.319397,591.904541 850.446899,592.579590 
	C842.362244,593.988892 839.096436,589.422485 836.676392,582.085999 
	C841.795715,582.085999 846.678467,582.086426 851.561218,582.085815 
	C855.055603,582.085388 858.550171,582.063904 862.044434,582.085815 
	C872.844727,582.153381 880.681763,587.565186 883.283508,596.731262 
	C885.917297,606.010193 882.201416,614.856201 873.275757,620.586731 
	C872.864746,620.850586 872.516357,621.211975 871.743286,621.858826 
	C873.659607,625.401245 875.609680,629.005981 877.760864,632.920654 
z"/>
<path fill="#CCCCBE" opacity="1.000000" stroke="none" 
	d="
M958.753052,611.330688 
	C964.153503,600.644165 969.373291,590.283508 975.165649,578.786499 
	C982.411438,593.047668 989.188904,606.387024 996.001160,619.794800 
	C987.153198,622.540527 984.623108,621.505432 980.793762,613.958008 
	C979.105957,610.631287 977.343811,607.342285 975.132141,603.111938 
	C969.576355,614.022461 964.453125,623.821594 959.574646,633.740967 
	C955.096252,642.846680 955.100525,642.961975 943.550171,641.506409 
	C948.636658,631.399353 953.604492,621.527954 958.753052,611.330688 
z"/>
<path fill="#CCCCBE" opacity="1.000000" stroke="none" 
	d="
M776.323730,638.855103 
	C786.306702,619.151306 796.098755,599.752014 806.453125,579.238647 
	C813.630676,593.418762 820.353699,606.700989 827.156921,620.141663 
	C817.165161,622.352478 815.986816,621.780640 811.891418,613.674316 
	C810.354553,610.632202 808.603577,607.698181 806.365356,603.659546 
	C802.594482,611.012939 799.353088,617.305176 796.138794,623.611206 
	C793.498718,628.790710 790.931763,634.007935 788.252075,639.166626 
	C786.828125,641.907898 778.131042,643.534424 775.942688,641.435547 
	C775.596680,641.103760 776.049377,639.939148 776.323730,638.855103 
z"/>
<path fill="#CCCCBE" opacity="1.000000" stroke="none" 
	d="
M920.699097,619.264587 
	C925.753662,609.428650 930.518433,599.927246 935.270081,590.419250 
	C939.194153,582.567078 940.652832,581.914001 950.274902,584.186096 
	C940.230225,604.069519 930.250732,623.823792 919.733215,644.643127 
	C912.685242,630.820190 906.060486,617.827271 899.374084,604.713440 
	C908.323730,602.251587 910.153198,603.102112 914.062927,610.161072 
	C915.892151,613.463623 918.272827,616.460693 920.699097,619.264587 
z"/>
<path fill="#CCCCBE" opacity="1.000000" stroke="none" 
	d="
M627.243469,585.842773 
	C633.260010,597.788330 639.156738,609.425903 645.106567,621.168152 
	C636.198853,623.411194 634.381958,622.624146 630.986023,615.720581 
	C629.458679,612.615723 627.730530,609.609619 625.629333,605.693542 
	C624.385742,607.609253 623.438599,608.814636 622.759705,610.155823 
	C618.709229,618.157471 614.651428,626.156738 610.730530,634.222168 
	C606.719727,642.472473 606.206116,642.795410 595.811218,641.137512 
	C605.582581,621.751587 615.246643,602.578430 625.157654,582.915405 
	C626.148193,584.235229 626.635864,584.885010 627.243469,585.842773 
z"/>
<path fill="#CFC9C2" opacity="1.000000" stroke="none" 
	d="
M881.030640,421.827881 
	C884.067993,421.761688 887.105286,421.695496 890.593384,422.121887 
	C891.291321,423.207367 891.396912,424.184570 891.806763,424.335449 
	C898.087158,426.647095 901.297241,431.551056 903.551086,437.496704 
	C904.190552,439.183594 905.826111,440.492889 907.003296,442.429749 
	C907.057556,448.000122 907.947144,453.424438 901.994019,456.301666 
	C900.326782,457.107452 898.673035,457.941071 896.548584,458.818848 
	C891.055298,458.834106 886.026428,458.792480 880.953125,458.490784 
	C880.598267,457.816284 880.287781,457.401886 879.916626,456.650085 
	C877.293762,453.579620 874.736450,450.841766 872.125977,448.155518 
	C872.084412,448.112671 871.392639,448.701599 870.895508,448.660828 
	C869.168518,444.881775 867.550354,441.437531 866.323059,437.963104 
	C867.451721,436.878601 868.685791,435.893005 868.842957,434.758270 
	C869.597351,429.311432 872.060852,425.759644 877.842590,424.785980 
	C879.037415,424.584747 879.974670,422.853790 881.030640,421.827881 
M874.774780,443.802002 
	C878.208801,454.220764 892.858032,457.751038 899.731323,449.487610 
	C901.420044,447.457367 902.457642,443.126160 901.442383,440.950226 
	C898.844910,435.383087 895.707886,430.039520 888.679077,428.069031 
	C883.411682,426.592377 879.511536,427.776855 876.032898,431.178528 
	C872.551758,434.582733 871.299133,438.642670 874.774780,443.802002 
z"/>
<path fill="#8C8A84" opacity="1.000000" stroke="none" 
	d="
M745.702881,426.177795 
	C747.918030,423.354736 749.849548,420.723877 752.073486,417.974426 
	C745.744751,431.043335 739.224182,444.283722 732.365784,457.346710 
	C731.571350,458.859924 728.911011,460.218018 727.099243,460.239227 
	C715.113037,460.379761 703.121948,460.160583 691.133362,459.994110 
	C688.797241,459.961670 686.494568,459.804932 688.274719,456.279266 
	C699.589661,433.869080 710.836670,411.424530 722.406494,388.844543 
	C720.553162,393.676422 718.560669,398.732605 716.213013,403.618134 
	C710.807556,414.867249 705.229370,426.033325 699.388794,437.811035 
	C697.299011,441.782745 695.312622,445.080536 693.839966,448.593719 
	C691.825623,453.399109 695.277710,458.737549 700.394409,458.837677 
	C708.719727,459.000702 717.053406,459.104370 725.373962,458.878632 
	C727.273132,458.827148 730.069824,457.845367 730.855652,456.414337 
	C735.229736,448.449036 739.111877,440.213562 743.162231,432.070496 
	C743.914612,430.170349 744.666992,428.270172 745.702881,426.177795 
z"/>
<path fill="#8C8A84" opacity="1.000000" stroke="none" 
	d="
M880.997559,458.750854 
	C886.026428,458.792480 891.055298,458.834106 896.987427,458.877258 
	C901.168579,458.598206 904.501709,458.580414 907.697083,457.908051 
	C908.977783,457.638550 910.789246,456.025055 910.923889,454.857758 
	C911.451843,450.280151 911.795593,445.551819 908.194458,441.377289 
	C907.799255,439.313629 907.418579,437.624298 907.037964,435.934967 
	C911.056641,443.301819 915.075378,450.668640 919.498596,458.776825 
	C916.845276,459.289154 914.983521,459.936310 913.113037,459.962677 
	C901.802307,460.122345 890.485901,460.304688 879.180847,460.053772 
	C877.142700,460.008575 874.168152,458.491119 873.294373,456.794250 
	C867.973389,446.461029 863.116638,435.887909 858.161011,425.368439 
	C857.621277,424.222717 857.439026,422.908539 856.941406,421.141785 
	C863.995056,421.141785 870.568420,421.141785 877.137390,421.521912 
	C873.514465,421.982788 869.892578,421.993073 866.278198,422.162354 
	C861.936340,422.365723 860.052429,425.106293 861.656494,429.157684 
	C862.857666,432.191620 864.491150,435.054352 865.932190,437.993286 
	C867.550354,441.437531 869.168518,444.881775 870.952332,449.002502 
	C872.365051,451.731903 873.612122,453.784790 874.937073,456.212952 
	C877.009094,457.309113 879.003357,458.029968 880.997559,458.750854 
z"/>
<path fill="#B6B2AB" opacity="1.000000" stroke="none" 
	d="
M823.217102,272.672852 
	C820.105591,273.357361 818.663757,271.952148 818.058105,268.949890 
	C816.863892,263.030304 814.444092,257.937439 809.028992,254.444992 
	C803.093689,250.617004 799.107666,250.881668 793.836060,256.144989 
	C792.712402,257.266968 791.278442,258.078247 789.537964,258.730865 
	C788.993958,258.195496 788.899475,257.961914 788.804932,257.728302 
	C788.966858,257.359375 789.128845,256.990448 789.760864,256.234955 
	C791.095215,253.809601 791.959656,251.770828 792.824036,249.732071 
	C792.824036,249.732071 792.881104,249.340881 793.346252,249.116943 
	C794.650757,247.513031 795.298462,245.956314 796.371704,244.791885 
	C798.268799,242.733734 800.120483,240.033371 802.542297,239.196411 
	C806.423157,237.855270 807.708435,241.967407 809.367798,244.385178 
	C811.944336,248.139297 814.069336,252.203384 816.385803,256.136047 
	C816.499878,256.289368 816.614014,256.442657 816.811523,257.233398 
	C819.002319,262.804871 821.109680,267.738861 823.217102,272.672852 
z"/>
<path fill="#B6B2AB" opacity="1.000000" stroke="none" 
	d="
M832.005737,468.998505 
	C832.005737,468.998505 831.992004,469.489960 831.592834,469.738739 
	C829.054993,469.940918 826.876526,469.838684 826.778320,472.861786 
	C826.082275,472.473419 825.626831,472.200500 825.171387,471.927612 
	C825.171387,471.927612 825.060852,471.888397 825.106934,471.571960 
	C824.675476,470.786011 824.197937,470.316467 823.720398,469.846924 
	C823.221497,469.100708 822.722534,468.354462 822.163025,466.862366 
	C822.454346,463.710571 822.625732,461.261322 823.190674,458.906494 
	C825.204468,450.512177 827.006226,449.873505 833.206970,455.163849 
	C833.764282,455.829742 834.321533,456.495636 834.957764,457.769562 
	C835.553406,458.955353 836.070068,459.533112 836.586670,460.110870 
	C836.976624,460.583160 837.366577,461.055450 837.798523,462.114136 
	C837.933044,463.269287 838.025574,463.838013 837.907227,464.729126 
	C835.799377,466.367157 833.902588,467.682831 832.005737,468.998505 
z"/>
<path fill="#B6B2AB" opacity="1.000000" stroke="none" 
	d="
M771.120850,510.895874 
	C766.017395,509.929962 762.019287,511.713043 758.403137,515.937622 
	C757.422302,516.005798 756.982605,515.928101 756.542847,515.850464 
	C756.414734,515.742371 756.286560,515.634338 756.067261,514.927368 
	C754.962769,512.447083 753.631836,510.660614 753.032410,508.655487 
	C752.512146,506.915100 752.048096,504.266907 752.951477,503.210632 
	C754.164612,501.792023 756.926941,500.570831 758.650330,500.952698 
	C762.148376,501.727814 765.395508,503.635803 768.746033,505.076843 
	C769.084045,505.535614 769.422119,505.994385 769.894043,507.054138 
	C770.392273,508.735352 770.756592,509.815613 771.120850,510.895874 
z"/>
<path fill="#B6B2AB" opacity="1.000000" stroke="none" 
	d="
M991.844971,635.759583 
	C991.183228,634.291748 990.682312,633.126709 990.160461,631.913025 
	C1000.445129,629.476929 1004.059448,631.668091 1006.125183,641.316650 
	C997.902344,643.695129 995.415100,642.769531 991.844971,635.759583 
z"/>
<path fill="#B6B2AB" opacity="1.000000" stroke="none" 
	d="
M837.222656,640.184326 
	C833.713867,643.849792 826.720703,643.037720 824.665466,639.037415 
	C823.529602,636.826538 822.454895,634.584229 821.346497,632.343811 
	C829.583862,629.122742 833.011108,630.781555 837.222656,640.184326 
z"/>
<path fill="#B6B2AB" opacity="1.000000" stroke="none" 
	d="
M891.030518,588.475403 
	C890.302734,586.826721 889.703186,585.493591 889.096069,584.143555 
	C898.520081,581.226562 902.336853,583.476501 904.696045,593.105652 
	C895.799622,595.090515 894.152161,594.565430 891.030518,588.475403 
z"/>
<path fill="#B6B2AB" opacity="1.000000" stroke="none" 
	d="
M643.482056,640.634766 
	C642.077698,637.829712 640.895386,635.303528 639.709900,632.770752 
	C648.092957,629.472046 652.594177,632.081055 654.806335,642.200867 
	C650.906006,641.748718 647.305054,641.331238 643.482056,640.634766 
z"/>
<path fill="#B6B2AB" opacity="1.000000" stroke="none" 
	d="
M866.323059,437.963104 
	C864.491150,435.054352 862.857666,432.191620 861.656494,429.157684 
	C860.052429,425.106293 861.936340,422.365723 866.278198,422.162354 
	C869.892578,421.993073 873.514465,421.982788 877.478760,421.709961 
	C878.710632,421.493958 879.596619,421.470032 880.756653,421.636993 
	C879.974670,422.853790 879.037415,424.584747 877.842590,424.785980 
	C872.060852,425.759644 869.597351,429.311432 868.842957,434.758270 
	C868.685791,435.893005 867.451721,436.878601 866.323059,437.963104 
z"/>
<path fill="#B6B2AB" opacity="1.000000" stroke="none" 
	d="
M778.957520,279.969849 
	C776.270142,285.978241 773.759644,292.073547 770.856689,297.975800 
	C765.686218,308.487946 760.283691,318.885956 754.955627,329.320160 
	C754.667664,329.884186 754.171753,330.342072 753.442444,330.640442 
	C753.091492,329.986359 753.070740,329.541199 753.049988,329.096039 
	C760.966248,313.259979 768.882507,297.423950 777.255188,281.242065 
	C778.126892,280.587433 778.542175,280.278656 778.957520,279.969849 
z"/>
<path fill="#8C8A84" opacity="1.000000" stroke="none" 
	d="
M768.690186,504.740143 
	C765.395508,503.635803 762.148376,501.727814 758.650330,500.952698 
	C756.926941,500.570831 754.164612,501.792023 752.951477,503.210632 
	C752.048096,504.266907 752.512146,506.915100 753.032410,508.655487 
	C753.631836,510.660614 754.962769,512.447083 755.970093,514.695557 
	C752.146179,509.362579 748.328308,503.662598 744.510437,497.962616 
	C744.863892,497.435303 745.217346,496.907990 745.570801,496.380676 
	C753.078003,499.666565 762.589783,496.163361 768.690186,504.740143 
z"/>
<path fill="#8C8A84" opacity="1.000000" stroke="none" 
	d="
M752.767151,329.245728 
	C753.070740,329.541199 753.091492,329.986359 753.124756,330.766602 
	C751.039795,335.358856 748.942261,339.616089 746.508911,344.379822 
	C745.810364,345.601685 745.447693,346.316986 745.084961,347.032288 
	C742.729492,351.441467 740.374023,355.850647 737.687744,360.793030 
	C737.212646,361.870056 737.068420,362.413879 736.924194,362.957703 
	C732.623474,370.971405 728.322693,378.985077 723.700012,387.090912 
	C725.747375,382.093079 727.965332,376.925903 730.514893,371.927887 
	C737.765625,357.713470 745.151611,343.567993 752.767151,329.245728 
z"/>
<path fill="#8C8A84" opacity="1.000000" stroke="none" 
	d="
M816.426819,255.782928 
	C814.069336,252.203384 811.944336,248.139297 809.367798,244.385178 
	C807.708435,241.967407 806.423157,237.855270 802.542297,239.196411 
	C800.120483,240.033371 798.268799,242.733734 796.371704,244.791885 
	C795.298462,245.956314 794.650757,247.513031 793.478699,248.970215 
	C795.888794,243.272263 798.631592,237.497131 801.937073,230.537262 
	C809.011536,238.440598 812.237793,247.246292 816.426819,255.782928 
z"/>
<path fill="#B6B2AB" opacity="1.000000" stroke="none" 
	d="
M906.974854,435.702148 
	C907.418579,437.624298 907.799255,439.313629 907.896179,441.453308 
	C907.409912,441.927490 907.207397,441.951385 907.004883,441.975311 
	C905.826111,440.492889 904.190552,439.183594 903.551086,437.496704 
	C901.297241,431.551056 898.087158,426.647095 891.806763,424.335449 
	C891.396912,424.184570 891.291321,423.207367 891.035583,422.241058 
	C893.068420,421.792206 895.109863,421.716797 897.703003,422.081726 
	C899.618164,424.065002 900.981750,425.607910 902.345276,427.150848 
	C903.196167,428.539703 904.047119,429.928589 904.905396,431.988342 
	C905.474243,433.474091 906.035706,434.288910 906.597107,435.103760 
	C906.597107,435.103760 906.911804,435.469360 906.974854,435.702148 
z"/>
<path fill="#8C8A84" opacity="1.000000" stroke="none" 
	d="
M833.205872,454.837006 
	C827.006226,449.873505 825.204468,450.512177 823.190674,458.906494 
	C822.625732,461.261322 822.454346,463.710571 822.061401,466.539368 
	C821.558960,465.532684 820.471313,463.969879 820.742249,462.696167 
	C822.041748,456.588196 823.708862,450.558411 825.555969,443.276001 
	C828.495728,447.593781 830.850281,451.051971 833.205872,454.837006 
z"/>
<path fill="#8C8A84" opacity="1.000000" stroke="none" 
	d="
M753.226562,416.735291 
	C756.140564,409.970093 759.276001,403.030396 762.574158,396.168945 
	C764.220581,392.743744 766.164490,389.461609 768.283936,386.004272 
	C763.567749,396.126923 758.541504,406.359985 753.226562,416.735291 
z"/>
<path fill="#8C8A84" opacity="1.000000" stroke="none" 
	d="
M823.230835,272.716675 
	C821.109680,267.738861 819.002319,262.804871 816.913879,257.501160 
	C822.216370,267.521301 827.499817,277.911194 832.836670,288.672119 
	C832.429504,288.775024 831.968872,288.506866 831.276367,288.103699 
	C830.389832,286.564117 829.735168,285.159546 828.928040,283.096252 
	C826.941162,279.240997 825.106750,276.044434 823.272339,272.847900 
	C823.272339,272.847900 823.244507,272.760468 823.230835,272.716675 
z"/>
<path fill="#8C8A84" opacity="1.000000" stroke="none" 
	d="
M821.807129,523.415405 
	C814.875366,530.514526 806.006165,530.990356 796.325806,529.208679 
	C799.102722,528.961853 802.363098,529.562927 805.286804,528.826782 
	C810.779602,527.443665 816.077820,525.287903 821.807129,523.415405 
z"/>
<path fill="#8C8A84" opacity="1.000000" stroke="none" 
	d="
M777.127014,537.764465 
	C781.833862,539.810242 786.540710,541.856018 791.628540,544.192993 
	C792.009583,544.484192 791.997070,544.982666 791.997070,544.982666 
	C786.157837,542.484558 780.318665,539.986389 774.638245,537.215088 
	C775.573730,537.216064 776.350342,537.490234 777.127014,537.764465 
z"/>
<path fill="#CCCCBE" opacity="1.000000" stroke="none" 
	d="
M832.334717,469.070679 
	C833.902588,467.682831 835.799377,466.367157 838.120117,464.961731 
	C839.190247,465.310699 839.836487,465.749481 840.482727,466.188263 
	C840.584534,466.322449 840.686340,466.456604 840.815430,467.147430 
	C840.896362,468.131592 840.950012,468.559113 841.003662,468.986572 
	C838.223633,469.038666 835.443665,469.090759 832.334717,469.070679 
z"/>
<path fill="#8C8A84" opacity="1.000000" stroke="none" 
	d="
M849.727417,488.020050 
	C849.475708,486.611969 849.223999,485.203918 848.899902,483.150482 
	C848.565796,482.001495 848.304077,481.497894 848.042358,480.994293 
	C847.003418,478.595703 845.964478,476.197113 844.938721,473.437134 
	C847.059814,478.182770 849.167603,483.289825 850.881653,488.613647 
	C850.234436,488.560272 849.980896,488.290161 849.727417,488.020050 
z"/>
<path fill="#8C8A84" opacity="1.000000" stroke="none" 
	d="
M814.286011,545.037842 
	C817.483093,543.376953 820.950562,541.875671 825.001526,540.056702 
	C826.954956,539.032715 828.324951,538.326416 829.794739,537.741821 
	C829.894592,537.863525 830.095154,538.106140 830.095154,538.106201 
	C824.915527,540.469971 819.735901,542.833740 814.286011,545.037842 
z"/>
<path fill="#8C8A84" opacity="1.000000" stroke="none" 
	d="
M779.064209,279.630341 
	C778.542175,280.278656 778.126892,280.587433 777.466492,280.982330 
	C779.668579,275.871246 782.115784,270.674072 784.884766,265.319427 
	C785.206543,265.161987 785.397522,265.311005 785.333984,265.614227 
	C785.258850,266.330109 785.247314,266.742767 785.235840,267.155457 
	C783.214172,271.200562 781.192566,275.245697 779.064209,279.630341 
z"/>
<path fill="#8C8A84" opacity="1.000000" stroke="none" 
	d="
M794.197021,528.326904 
	C790.275757,526.729004 786.132690,524.874268 781.915771,522.693970 
	C785.886414,524.268860 789.930786,526.169495 794.197021,528.326904 
z"/>
<path fill="#8C8A84" opacity="1.000000" stroke="none" 
	d="
M830.488586,481.179260 
	C835.237488,483.658295 834.601929,488.932587 835.702087,493.626190 
	C833.889648,489.770294 832.272522,485.632355 830.488586,481.179260 
z"/>
<path fill="#CCCCBE" opacity="1.000000" stroke="none" 
	d="
M849.391357,488.156097 
	C849.980896,488.290161 850.234436,488.560272 850.751953,488.917084 
	C851.123779,491.059967 851.231506,493.116180 851.175110,495.585510 
	C845.649170,494.625061 848.152649,491.255493 849.391357,488.156097 
z"/>
<path fill="#8C8A84" opacity="1.000000" stroke="none" 
	d="
M848.702515,510.877167 
	C848.960510,510.346497 849.218567,509.815826 849.737549,509.142639 
	C848.935852,512.318848 847.873169,515.637573 846.511047,519.106689 
	C846.713196,517.401062 847.214844,515.545105 848.018677,513.152832 
	C848.447998,512.036743 848.575256,511.456940 848.702515,510.877167 
z"/>
<path fill="#8C8A84" opacity="1.000000" stroke="none" 
	d="
M838.090576,531.427551 
	C838.594971,529.872314 839.409668,528.308777 840.666382,526.434692 
	C841.581787,526.046387 842.055237,525.968506 842.528564,525.890625 
	C841.152710,527.733459 839.776794,529.576355 838.090576,531.427551 
z"/>
<path fill="#CCCCBE" opacity="1.000000" stroke="none" 
	d="
M827.018860,472.977264 
	C826.876526,469.838684 829.054993,469.940918 831.592224,469.984558 
	C830.681702,471.597382 829.372681,473.213196 827.897827,475.153625 
	C827.732056,475.478210 827.640137,475.742615 827.640137,475.742615 
	C827.516235,475.622345 827.392273,475.502045 827.230042,474.824890 
	C827.134155,473.837769 827.076477,473.407532 827.018860,472.977264 
z"/>
<path fill="#8C8A84" opacity="1.000000" stroke="none" 
	d="
M835.297363,499.368652 
	C835.084534,501.671722 834.635681,504.258789 833.913086,507.027191 
	C834.113281,504.689911 834.587341,502.171295 835.297363,499.368652 
z"/>
<path fill="#B6B2AB" opacity="1.000000" stroke="none" 
	d="
M798.974670,545.020325 
	C801.380249,544.672852 803.785828,544.325317 806.581848,544.320923 
	C806.983337,545.087646 806.994385,545.511292 807.005493,545.934998 
	C804.627625,545.990051 802.249756,546.045044 799.443726,545.787842 
	C799.015564,545.475647 798.974670,545.020325 798.974670,545.020325 
z"/>
<path fill="#8C8A84" opacity="1.000000" stroke="none" 
	d="
M756.534180,516.182068 
	C756.982605,515.928101 757.422302,516.005798 758.069092,516.129517 
	C759.250427,518.142700 760.224854,520.109863 761.162048,522.437744 
	C759.591736,520.703552 758.058655,518.608643 756.534180,516.182068 
z"/>
<path fill="#8C8A84" opacity="1.000000" stroke="none" 
	d="
M902.336853,426.830963 
	C900.981750,425.607910 899.618164,424.065002 898.120850,422.227661 
	C899.434204,423.459167 900.881348,424.985107 902.336853,426.830963 
z"/>
<path fill="#8C8A84" opacity="1.000000" stroke="none" 
	d="
M788.548096,257.941193 
	C788.899475,257.961914 788.993958,258.195496 789.194580,258.792358 
	C788.572876,260.537323 787.844910,261.918945 786.793945,263.755615 
	C786.113098,264.577423 785.755310,264.944214 785.397522,265.311005 
	C785.397522,265.311005 785.206543,265.161987 785.110901,265.087708 
	C786.107239,262.726959 787.199280,260.440521 788.548096,257.941193 
z"/>
<path fill="#8C8A84" opacity="1.000000" stroke="none" 
	d="
M792.553223,249.920319 
	C791.959656,251.770828 791.095215,253.809601 789.949036,255.994705 
	C790.539001,254.130219 791.410706,252.119385 792.553223,249.920319 
z"/>
<path fill="#B6B2AB" opacity="1.000000" stroke="none" 
	d="
M842.704590,525.718140 
	C842.055237,525.968506 841.581787,526.046387 840.883789,526.174622 
	C840.261719,525.497131 839.864258,524.769287 839.466797,524.041443 
	C840.422119,523.714294 841.377502,523.387207 842.687500,523.402832 
	C843.044678,524.191284 843.047180,524.637085 843.049683,525.082825 
	C843.049683,525.082825 842.880615,525.545654 842.704590,525.718140 
z"/>
<path fill="#8C8A84" opacity="1.000000" stroke="none" 
	d="
M841.264771,469.130798 
	C840.950012,468.559113 840.896362,468.131592 840.899170,467.385742 
	C842.124878,468.568359 843.294189,470.069336 844.388428,471.894104 
	C843.384216,471.236938 842.455017,470.255951 841.264771,469.130798 
z"/>
<path fill="#8C8A84" opacity="1.000000" stroke="none" 
	d="
M771.333008,511.058502 
	C770.756592,509.815613 770.392273,508.735352 770.021301,507.310944 
	C771.162048,508.501953 772.309509,510.037140 773.414673,511.897278 
	C772.763306,511.888580 772.154236,511.554840 771.333008,511.058502 
z"/>
<path fill="#8C8A84" opacity="1.000000" stroke="none" 
	d="
M840.526062,465.868713 
	C839.836487,465.749481 839.190247,465.310699 838.331055,464.639343 
	C838.025574,463.838013 837.933044,463.269287 837.888916,462.408844 
	C838.814636,463.261139 839.692017,464.405151 840.526062,465.868713 
z"/>
<path fill="#8C8A84" opacity="1.000000" stroke="none" 
	d="
M843.333862,524.937256 
	C843.047180,524.637085 843.044678,524.191284 843.070435,523.411804 
	C843.741028,522.350342 844.383423,521.622620 845.318665,520.864990 
	C844.946960,522.153992 844.282471,523.472900 843.333862,524.937256 
z"/>
<path fill="#8C8A84" opacity="1.000000" stroke="none" 
	d="
M830.685242,513.087646 
	C830.347534,514.332397 829.708313,515.683228 828.749512,517.106262 
	C829.081177,515.850220 829.732422,514.521912 830.685242,513.087646 
z"/>
<path fill="#B6B2AB" opacity="1.000000" stroke="none" 
	d="
M777.073120,537.449829 
	C776.350342,537.490234 775.573730,537.216064 774.486267,536.933105 
	C773.882385,536.747803 773.589294,536.571167 773.267822,536.134094 
	C774.499329,536.294189 775.759216,536.714661 777.073120,537.449829 
z"/>
<path fill="#8C8A84" opacity="1.000000" stroke="none" 
	d="
M830.985535,535.988037 
	C831.747803,535.618103 832.510132,535.248169 833.589233,534.911133 
	C832.842041,535.932251 831.778076,536.920471 830.404602,538.007385 
	C830.095154,538.106140 829.894592,537.863525 829.982422,537.557922 
	C830.375366,536.830872 830.680481,536.409485 830.985535,535.988037 
z"/>
<path fill="#8C8A84" opacity="1.000000" stroke="none" 
	d="
M778.541382,518.906067 
	C777.664246,518.391663 776.778503,517.570129 775.911011,516.430237 
	C776.797058,516.940857 777.664978,517.769897 778.541382,518.906067 
z"/>
<path fill="#8C8A84" opacity="1.000000" stroke="none" 
	d="
M807.233032,546.064453 
	C806.994385,545.511292 806.983337,545.087646 807.004517,544.347778 
	C807.919983,544.325378 808.803284,544.619141 809.989014,545.092163 
	C809.347778,545.578979 808.404175,545.886414 807.233032,546.064453 
z"/>
<path fill="#8C8A84" opacity="1.000000" stroke="none" 
	d="
M769.141113,533.256104 
	C770.098755,533.545105 771.096069,534.144470 772.163757,535.042358 
	C771.216309,534.749451 770.198547,534.157959 769.141113,533.256104 
z"/>
<path fill="#8C8A84" opacity="1.000000" stroke="none" 
	d="
M832.691711,509.110718 
	C832.660828,509.948090 832.350281,510.936157 831.739136,512.046631 
	C831.763123,511.199921 832.087585,510.230682 832.691711,509.110718 
z"/>
<path fill="#8C8A84" opacity="1.000000" stroke="none" 
	d="
M798.561646,544.993835 
	C798.974670,545.020325 799.015564,545.475647 799.005066,545.703979 
	C797.986389,545.861206 796.978149,545.790100 795.843567,545.482788 
	C796.527649,545.153503 797.338074,545.060425 798.561646,544.993835 
z"/>
<path fill="#B6B2AB" opacity="1.000000" stroke="none" 
	d="
M792.369873,545.074219 
	C791.997070,544.982666 792.009583,544.484192 792.007080,544.234863 
	C792.973022,544.110229 793.941406,544.234924 794.956665,544.668640 
	C794.249878,545.040344 793.496216,545.103027 792.369873,545.074219 
z"/>
<path fill="#8C8A84" opacity="1.000000" stroke="none" 
	d="
M906.629028,434.796326 
	C906.035706,434.288910 905.474243,433.474091 904.951660,432.338074 
	C905.547424,432.840851 906.104187,433.664886 906.629028,434.796326 
z"/>
<path fill="#8C8A84" opacity="1.000000" stroke="none" 
	d="
M826.778320,472.861786 
	C827.076477,473.407532 827.134155,473.837769 827.127014,474.587158 
	C826.412781,474.127075 825.763306,473.347839 825.142639,472.248108 
	C825.626831,472.200500 826.082275,472.473419 826.778320,472.861786 
z"/>
<path fill="#8C8A84" opacity="1.000000" stroke="none" 
	d="
M827.604492,476.028992 
	C827.640137,475.742615 827.732056,475.478210 827.872009,475.480652 
	C828.386841,476.054932 828.761719,476.626740 829.103638,477.545227 
	C828.570068,477.366364 828.069519,476.840851 827.604492,476.028992 
z"/>
<path fill="#8C8A84" opacity="1.000000" stroke="none" 
	d="
M836.585083,459.817627 
	C836.070068,459.533112 835.553406,458.955353 835.096680,458.067139 
	C835.632202,458.345886 836.107788,458.935120 836.585083,459.817627 
z"/>
<path fill="#B6B2AB" opacity="1.000000" stroke="none" 
	d="
M849.912781,504.996033 
	C850.085815,504.341339 850.258850,503.686646 850.707275,503.014465 
	C851.079163,503.449829 851.175598,503.902679 850.858459,504.658936 
	C850.267517,504.973572 850.090149,504.984802 849.912781,504.996033 
z"/>
<path fill="#8C8A84" opacity="1.000000" stroke="none" 
	d="
M849.921265,505.394714 
	C850.090149,504.984802 850.267517,504.973572 850.710815,504.982056 
	C850.895874,505.719025 850.815063,506.436279 850.515381,507.240845 
	C850.174255,506.816620 850.052002,506.304993 849.921265,505.394714 
z"/>
<path fill="#8C8A84" opacity="1.000000" stroke="none" 
	d="
M780.446411,520.930420 
	C779.908081,520.807861 779.338501,520.412231 778.769897,519.735840 
	C779.319031,519.855896 779.867065,520.256592 780.446411,520.930420 
z"/>
<path fill="#8C8A84" opacity="1.000000" stroke="none" 
	d="
M823.671997,470.109375 
	C824.197937,470.316467 824.675476,470.786011 825.139221,471.523010 
	C824.624878,471.317566 824.124268,470.844696 823.671997,470.109375 
z"/>
<path fill="#8C8A84" opacity="1.000000" stroke="none" 
	d="
M762.395325,525.106262 
	C762.981750,525.319641 763.532349,525.835876 764.054565,526.655640 
	C763.470642,526.442566 762.915039,525.925842 762.395325,525.106262 
z"/>
<path fill="#8C8A84" opacity="1.000000" stroke="none" 
	d="
M826.569214,518.892273 
	C826.463440,519.527527 826.051147,520.220825 825.309326,520.951050 
	C825.407471,520.308655 825.835083,519.629517 826.569214,518.892273 
z"/>
<path fill="#8C8A84" opacity="1.000000" stroke="none" 
	d="
M775.372681,514.931885 
	C774.850586,514.687622 774.366211,514.158203 773.924316,513.339722 
	C774.447998,513.582764 774.929260,514.114746 775.372681,514.931885 
z"/>
<path fill="#CCCCBE" opacity="1.000000" stroke="none" 
	d="
M742.778442,432.059875 
	C739.111877,440.213562 735.229736,448.449036 730.855652,456.414337 
	C730.069824,457.845367 727.273132,458.827148 725.373962,458.878632 
	C717.053406,459.104370 708.719727,459.000702 700.394409,458.837677 
	C695.277710,458.737549 691.825623,453.399109 693.839966,448.593719 
	C695.312622,445.080536 697.299011,441.782745 699.277954,438.174774 
	C700.108643,439.119202 701.487915,440.533661 701.201782,441.394867 
	C699.356445,446.949432 701.520813,450.570984 706.099182,453.475555 
	C716.694885,460.197571 729.948975,455.248596 735.379639,443.587036 
	C737.190186,439.699158 736.582947,433.689301 742.778442,432.059875 
z"/>
<path fill="#B6B2AB" opacity="1.000000" stroke="none" 
	d="
M823.205811,273.238464 
	C825.106750,276.044434 826.941162,279.240997 828.778625,282.799225 
	C823.989990,281.706726 824.267822,277.251587 823.205811,273.238464 
z"/>
<path fill="#B6B2AB" opacity="1.000000" stroke="none" 
	d="
M785.333984,265.614227 
	C785.755310,264.944214 786.113098,264.577423 786.686035,264.072205 
	C786.546265,264.916168 786.191406,265.898621 785.536133,267.018250 
	C785.247314,266.742767 785.258850,266.330109 785.333984,265.614227 
z"/>
<path fill="#CCCCBE" opacity="1.000000" stroke="none" 
	d="
M745.408813,346.939209 
	C745.447693,346.316986 745.810364,345.601685 746.452332,344.731934 
	C746.398621,345.333710 746.065613,346.089935 745.408813,346.939209 
z"/>
<path fill="#CCCCBE" opacity="1.000000" stroke="none" 
	d="
M737.212646,362.923706 
	C737.068420,362.413879 737.212646,361.870056 737.564758,361.133728 
	C737.682129,361.590729 737.591614,362.240204 737.212646,362.923706 
z"/>
<path fill="#B6B2AB" opacity="1.000000" stroke="none" 
	d="
M857.995667,343.992676 
	C857.991333,343.985626 857.811890,344.288574 857.811890,344.288574 
	C857.811890,344.288574 857.848938,344.100800 857.931458,344.054749 
	C858.013977,344.008728 858.000000,343.999725 857.995667,343.992676 
z"/>
<path fill="#B6B2AB" opacity="1.000000" stroke="none" 
	d="
M830.605957,536.007080 
	C830.680481,536.409485 830.375366,536.830872 829.882568,537.436218 
	C828.324951,538.326416 826.954956,539.032715 825.266357,539.834351 
	C826.707214,538.628418 828.466797,537.327209 830.605957,536.007080 
z"/>
<path fill="#B6B2AB" opacity="1.000000" stroke="none" 
	d="
M848.464417,510.962463 
	C848.575256,511.456940 848.447998,512.036743 848.071533,512.794556 
	C847.956909,512.330994 848.091614,511.689392 848.464417,510.962463 
z"/>
<path fill="#B6B2AB" opacity="1.000000" stroke="none" 
	d="
M847.846680,481.165253 
	C848.304077,481.497894 848.565796,482.001495 848.801697,482.802765 
	C848.400940,482.512360 848.026001,481.924286 847.846680,481.165253 
z"/>
<path fill="#B6B2AB" opacity="1.000000" stroke="none" 
	d="
M835.474487,529.514954 
	C835.457397,529.480591 835.491577,529.549316 835.474487,529.514954 
z"/>
<path fill="#DCD7D2" opacity="1.000000" stroke="none" 
	d="
M874.632263,443.446350 
	C871.299133,438.642670 872.551758,434.582733 876.032898,431.178528 
	C879.511536,427.776855 883.411682,426.592377 888.679077,428.069031 
	C895.707886,430.039520 898.844910,435.383087 901.442383,440.950226 
	C902.457642,443.126160 901.420044,447.457367 899.731323,449.487610 
	C892.858032,457.751038 878.208801,454.220764 874.632263,443.446350 
z"/>
<path fill="#CCCCBE" opacity="1.000000" stroke="none" 
	d="
M907.003296,442.429749 
	C907.207397,441.951385 907.409912,441.927490 907.910706,441.827606 
	C911.795593,445.551819 911.451843,450.280151 910.923889,454.857758 
	C910.789246,456.025055 908.977783,457.638550 907.697083,457.908051 
	C904.501709,458.580414 901.168579,458.598206 897.451904,458.820312 
	C898.673035,457.941071 900.326782,457.107452 901.994019,456.301666 
	C907.947144,453.424438 907.057556,448.000122 907.003296,442.429749 
z"/>
<path fill="#B6B2AB" opacity="1.000000" stroke="none" 
	d="
M874.859253,455.837646 
	C873.612122,453.784790 872.365051,451.731903 871.061157,449.337341 
	C871.392639,448.701599 872.084412,448.112671 872.125977,448.155518 
	C874.736450,450.841766 877.293762,453.579620 879.544250,456.636139 
	C877.774780,456.585602 876.317017,456.211609 874.859253,455.837646 
z"/>
<path fill="#CCCCBE" opacity="1.000000" stroke="none" 
	d="
M874.937073,456.212952 
	C876.317017,456.211609 877.774780,456.585602 879.604980,456.973511 
	C880.287781,457.401886 880.598267,457.816284 880.953125,458.490784 
	C879.003357,458.029968 877.009094,457.309113 874.937073,456.212952 
z"/>
</svg>